# xmcd
# 
# Track frame offsets:
#     150
#     32513
#     55895
#     79895
#     103586
#     130877
#     160165
# 
# Disc length: 2577
# 
# Revision: 0
# Processed by: cddbd v1.5.2PL0 Copyright (c) Steve Scherf et al.
# Submitted via: BonkEnc v1.0.8
# 
DISCID=510a0f07
DTITLE=BubbleRecords - fiori
DYEAR=2009
DGENRE=東方Project
TTITLE0=Eye Opener
TTITLE1=Lovely ice girl -Re-edit-
TTITLE2=Flow in Age
TTITLE3=sakura sakura
TTITLE4=Immortal
TTITLE5=Frenzy cure
TTITLE6=Goblin Girl 2
EXTD=
EXTT0=
EXTT1=
EXTT2=
EXTT3=
EXTT4=
EXTT5=
EXTT6=
PLAYORDER=
